<svg width="311" height="315" viewBox="0 0 311 315" fill="none" xmlns="http://www.w3.org/2000/svg">
<path d="M49.4795 201.955L194.675 55.5401L186.627 47.559C178.784 39.7812 166.121 39.8341 158.343 47.6772L41.3132 165.689C33.5354 173.532 33.5883 186.196 41.4314 193.973L49.4795 201.955Z" fill="#3579B6"/>
<path fill-rule="evenodd" clip-rule="evenodd" d="M69.7524 222.059L214.948 75.6441L235.509 96.0337L190.956 140.96C188.033 143.908 188.053 148.667 191.001 151.59C193.948 154.513 198.707 154.493 201.63 151.546L246.183 106.619L263.68 123.97C271.523 131.748 271.576 144.411 263.798 152.254L146.768 270.266C138.99 278.11 126.327 278.162 118.484 270.385L90.3916 242.526L109.223 223.536C112.147 220.588 112.127 215.829 109.179 212.906C106.232 209.983 101.472 210.003 98.5494 212.951L79.7175 231.941L69.7524 222.059Z" fill="#F7941D"/>
<rect x="44.322" y="247.703" width="81.9907" height="15.03" rx="7.515" transform="rotate(-45.2395 44.322 247.703)" fill="#F7941D"/>
<rect x="76.8748" y="254.637" width="81.9907" height="15.03" rx="7.515" transform="rotate(-45.2395 76.8748 254.637)" fill="#F7941D"/>
<rect x="183.386" y="127.938" width="81.9907" height="15.03" rx="7.515" transform="rotate(-45.2395 183.386 127.938)" fill="#F7941D"/>
<rect x="246.824" y="63.9678" width="15.03" height="15.03" rx="7.515" transform="rotate(-45.2395 246.824 63.9678)" fill="#F7941D"/>
<path fill-rule="evenodd" clip-rule="evenodd" d="M48.2247 158.719C63.4817 155.913 79.0502 155.202 94.4673 156.589L49.4794 201.954L41.4313 193.973C33.5883 186.195 33.5354 173.532 41.3132 165.689L48.2247 158.719Z" fill="#095B8D"/>
<path fill-rule="evenodd" clip-rule="evenodd" d="M203.964 212.591C202 210.434 199.971 208.316 197.876 206.239C177.388 185.921 153.032 171.888 127.201 164.128L95.7459 195.847L68.7346 223.085L48.5959 243.393C45.6734 246.34 45.6932 251.098 48.6403 254.021C51.5873 256.943 56.3455 256.923 59.268 253.976L100.873 212.022C103.383 211.333 106.181 211.969 108.161 213.933C110.105 215.86 110.775 218.585 110.169 221.063L81.1486 250.327C78.2261 253.274 78.246 258.033 81.193 260.955C84.14 263.878 88.8982 263.858 91.8207 260.911L99.2862 253.383L117.466 271.411C125.309 279.189 137.973 279.136 145.75 271.293L203.964 212.591Z" fill="#D27818"/>
<path d="M183.095 275.596L256.8 246.151L262.338 260.37C264.626 266.243 260.443 272.62 254.145 272.862L183.095 275.596Z" fill="#F7941D"/>
<path d="M242.635 273.301L183.097 275.592L234.493 255.059C237.525 260.962 240.246 267.049 242.635 273.301Z" fill="#D67616"/>
<path d="M156.273 276.727L263.175 174.473L282.621 195.308C291.619 204.948 288.3 220.598 276.165 225.757L156.273 276.727Z" fill="#3579B6"/>
<path fill-rule="evenodd" clip-rule="evenodd" d="M228.038 246.222L156.281 276.728L212.076 223.359C217.952 230.548 223.293 238.189 228.038 246.222Z" fill="#0D5F8F"/>
</svg>
